<?xml version="1.0" encoding="UTF-8"?>
<svg version="1.1" xmlns="http://www.w3.org/2000/svg" width="1024" height="1024">
<path d="M0 0 C0.66 0 1.32 0 2 0 C1.09347653 29.0087511 -10.84481463 54.36077922 -31.59521484 74.55224609 C-59.34738089 100.34444182 -94.75672546 108.42549052 -131.70605469 107.1640625 C-157.94261708 105.85729034 -183.75297462 98.79727606 -209 92 C-211.31 98.27 -213.62 104.54 -216 111 C-213.03 111.66 -210.06 112.32 -207 113 C-205.17101269 113.49501939 -203.34694382 114.00902969 -201.53125 114.55078125 C-190.7396711 117.70791592 -179.96652322 120.60244033 -168.9375 122.8125 C-167.97714844 123.00690674 -167.01679687 123.20131348 -166.02734375 123.40161133 C-152.2637388 126.06059581 -138.75034849 127.38740219 -124.75 127.3125 C-123.67782227 127.30976578 -123.67782227 127.30976578 -122.58398438 127.30697632 C-83.82182941 127.14140445 -47.02650633 114.41053915 -19 87 C-17.25663196 85.04774916 -15.62920043 83.04963925 -14 81 C-13.67 81 -13.34 81 -13 81 C-13.75931873 104.91853999 -28.91437941 127.88523957 -45.69921875 143.984375 C-70.22356887 165.46920465 -101.13949229 173.51766404 -133.26342773 171.67553711 C-153.10863117 170.23435298 -172.01491309 165.78139526 -191 160 C-192.48566455 159.55334373 -193.97134019 159.10672434 -195.45703125 158.66015625 C-198.31090134 157.79131823 -201.15885321 156.90939291 -204 156 C-206.79308415 162.62391498 -209.53267983 169.24733426 -212 176 C-210.80890625 176.23976563 -209.6178125 176.47953125 -208.390625 176.7265625 C-202.38645791 178.06004067 -196.5643804 179.93785723 -190.69732666 181.76977539 C-172.91451632 187.2966316 -154.71886014 192.08341842 -135.9765625 192.203125 C-135.23736069 192.21018463 -134.49815887 192.21724426 -133.73655701 192.22451782 C-111.6769374 192.5631242 -111.6769374 192.5631242 -90 189 C-89.12263184 188.76941895 -88.24526367 188.53883789 -87.34130859 188.30126953 C-79.15228339 186.10830477 -71.02389304 183.7401857 -63 181 C-64.3748724 184.96870385 -66.20247489 187.77279987 -68.875 191 C-69.55304688 191.825 -70.23109375 192.65 -70.9296875 193.5 C-71.61289062 194.325 -72.29609375 195.15 -73 196 C-73.67546875 196.86109375 -74.3509375 197.7221875 -75.046875 198.609375 C-88.07027468 214.55001621 -110.10667726 224.09012962 -130 227 C-144.77794275 227.82397924 -159.62081705 227.70569357 -174 224 C-174.72541992 223.81727539 -175.45083984 223.63455078 -176.19824219 223.44628906 C-206.74445817 215.52689973 -235.24671396 201.14718761 -263.45703125 187.33203125 C-272.89931967 182.73039053 -282.51874977 178.63360152 -292.25 174.6875 C-292.87308044 174.43197357 -293.49616089 174.17644714 -294.13812256 173.91317749 C-312.23592075 166.5178023 -328.59084766 163.78327249 -348 164 C-348 163.34 -348 162.68 -348 162 C-346.3125 160.7734375 -346.3125 160.7734375 -344 159.375 C-329.81081276 150.17541707 -320.07257685 134.50204683 -316.46875 118.0703125 C-314.25365959 103.56147034 -317.51307619 90.45359137 -325.78515625 78.3984375 C-334.6985153 66.66753553 -346.02505156 60.15197744 -360 56 C-356.45362292 51.63891467 -352.26543297 50.24686365 -347.125 48.4375 C-346.26712891 48.13303955 -345.40925781 47.8285791 -344.52539062 47.51489258 C-298.09081361 31.41299971 -246.66354138 43.73838223 -200.06292725 53.22930908 C-199.32028625 53.38051208 -198.57764526 53.53171509 -197.8125 53.6875 C-197.07501526 53.83773621 -196.33753052 53.98797241 -195.57769775 54.14276123 C-183.44708977 56.60479658 -171.31300013 58.68249612 -159 60 C-157.81059814 60.13921875 -157.81059814 60.13921875 -156.59716797 60.28125 C-147.78915068 61.21702873 -138.97324488 61.24344945 -130.125 61.25 C-129.30363556 61.25067474 -128.48227112 61.25134949 -127.63601685 61.25204468 C-114.87171203 61.23541822 -102.51864686 60.69391901 -90 58 C-89.15743652 57.82307617 -88.31487305 57.64615234 -87.44677734 57.46386719 C-62.25308025 52.03204793 -38.697976 41.6257217 -19.92578125 23.65234375 C-18 22 -18 22 -16 22 C-15.77054688 21.44957031 -15.54109375 20.89914062 -15.3046875 20.33203125 C-13.63183743 17.34193696 -11.48783139 15.16601898 -9.125 12.6875 C-5.37068661 8.64021996 -2.41927296 4.94851287 0 0 Z " fill="#FD7A1C" transform="translate(766,399)"/>
<path d="M0 0 C0.65310654 -0.0038269 1.30621307 -0.00765381 1.97911072 -0.01159668 C3.35498605 -0.01431042 4.73091344 -0.00698659 6.10668945 0.00976562 C8.21226759 0.03122375 10.31444813 0.00993462 12.41992188 -0.015625 C13.7591221 -0.0129823 15.09832022 -0.00785849 16.4375 0 C18.26099976 0.00676758 18.26099976 0.00676758 20.12133789 0.01367188 C23.15234375 0.53125 23.15234375 0.53125 25.05322266 2.19506836 C26.42795926 5.11707071 26.49036371 7.21463434 26.453125 10.44140625 C26.46150391 11.59705078 26.46988281 12.75269531 26.47851562 13.94335938 C26.46950318 16.34968268 26.44894002 18.75599444 26.41601562 21.16210938 C26.50834365 29.94299057 28.49446857 35.19699146 33.15234375 42.53125 C34.38145192 44.75745528 35.60245355 46.98815056 36.81640625 49.22265625 C38.13338803 51.51493765 39.45373893 53.80528648 40.77734375 56.09375 C41.09525879 56.68196533 41.41317383 57.27018066 41.74072266 57.8762207 C45.5477903 65.21116447 45.5477903 65.21116447 52.13305664 69.65942383 C55.15020884 70.12692254 58.10690674 70.34978196 61.15234375 70.53125 C72.21992961 74.31981755 80.18992997 81.27536053 85.58984375 91.59375 C91.01099406 103.47222617 91.6576693 114.19136234 87.15234375 126.53125 C82.66356115 136.69266996 75.57176762 145.2169573 65.15234375 149.53125 C63.20289096 149.8148794 61.25304711 150.09706874 59.29907227 150.34765625 C54.64075975 151.03737243 50.73129842 151.72416637 47.52001953 155.39941406 C44.27744019 160.33187815 41.90179083 165.65945841 39.44335938 171.01123047 C38.2371054 173.36579809 36.95149845 175.26568702 35.29296875 177.31640625 C27.22742461 187.43018699 27.08459607 197.49117301 27.26123047 209.9699707 C27.28660889 211.92616333 27.28660889 211.92616333 27.3125 213.921875 C27.36869507 215.6857959 27.36869507 215.6857959 27.42602539 217.48535156 C27.11473674 220.94979154 26.81706171 222.28663609 24.15234375 224.53125 C21.02954102 225.04882812 21.02954102 225.04882812 17.21875 225.0625 C16.54440414 225.0663269 15.87005829 225.07015381 15.17527771 225.07409668 C13.75054429 225.07681566 12.32576094 225.0694551 10.90112305 225.05273438 C8.72526063 225.03135237 6.55271179 225.05251335 4.37695312 225.078125 C2.99087815 225.07548106 1.60480524 225.0703547 0.21875 225.0625 C-1.03993896 225.05798828 -2.29862793 225.05347656 -3.59545898 225.04882812 C-6.84765625 224.53125 -6.84765625 224.53125 -9.25830078 222.91015625 C-11.3580466 219.76731089 -11.34972101 217.70286982 -11.34375 213.9375 C-11.34439453 212.66003906 -11.34503906 211.38257813 -11.34570312 210.06640625 C-11.33011353 209.07278076 -11.33011353 209.07278076 -11.31420898 208.05908203 C-11.28524223 206.03725102 -11.2936069 204.01804328 -11.30664062 201.99609375 C-11.23384146 190.89702151 -11.23384146 190.89702151 -7.84765625 187.53125 C-5.0235386 186.58987745 -3.31847593 186.41399618 -0.3984375 186.43359375 C0.44912109 186.43681641 1.29667969 186.44003906 2.16992188 186.44335938 C3.05099609 186.45173828 3.93207031 186.46011719 4.83984375 186.46875 C5.73251953 186.47326172 6.62519531 186.47777344 7.54492188 186.48242188 C9.74746362 186.49420017 11.94986974 186.51064836 14.15234375 186.53125 C14.38566406 185.71011719 14.61898437 184.88898438 14.859375 184.04296875 C16.41518842 179.81736071 18.52076546 176.18885614 20.83984375 172.34375 C21.28247559 171.59923584 21.72510742 170.85472168 22.18115234 170.08764648 C25.32643164 164.82371161 28.58545383 159.64717833 31.97265625 154.53515625 C33.32144833 152.63155632 33.32144833 152.63155632 33.15234375 150.53125 C31.07042378 149.07534654 31.07042378 149.07534654 28.46484375 147.65625 C24.73977388 145.54813638 21.44424929 143.27153894 18.15234375 140.53125 C17.49339111 140.88840088 16.83443848 141.24555176 16.15551758 141.61352539 C14.19632052 142.67532021 12.23628798 143.73557419 10.27563477 144.79467773 C8.06062495 145.99830633 5.85146778 147.21276573 3.64819336 148.43774414 C-5.73921139 153.6266744 -5.73921139 153.6266744 -10.30078125 155.1796875 C-14.11619436 156.59121925 -16.24585412 157.37915948 -18.84765625 160.53125 C-20.3669431 167.00179602 -20.05414901 173.69389871 -19.62158203 180.28222656 C-19.84765625 182.53125 -19.84765625 182.53125 -21.11303711 184.30078125 C-24.12152182 186.43487878 -27.71439403 186.16299344 -31.28515625 186.28125 C-32.08832275 186.31436279 -32.89148926 186.34747559 -33.71899414 186.3815918 C-48.09462096 186.8718497 -48.09462096 186.8718497 -52.84765625 185.53125 C-55.18829445 183.1789721 -55.81455996 181.80261785 -56.2199707 178.47851562 C-56.21698975 177.30998047 -56.21400879 176.14144531 -56.2109375 174.9375 C-56.21029297 173.66003906 -56.20964844 172.38257813 -56.20898438 171.06640625 C-56.20068604 170.40398926 -56.1923877 169.74157227 -56.18383789 169.05908203 C-56.16023135 167.0376804 -56.16328351 165.01759841 -56.16992188 162.99609375 C-56.10836185 151.90409703 -56.10836185 151.90409703 -53.84765625 148.53125 C-51.28543561 147.25013968 -49.60151422 147.49983074 -46.73828125 147.6015625 C-30.82223759 147.83267051 -19.84339775 145.05124798 -6.19482422 136.92626953 C-3.43914498 135.28845476 -0.6347215 133.76311538 2.1940918 132.25634766 C3.76861697 131.41519072 5.32845581 130.54669522 6.88671875 129.67578125 C9.15234375 128.53125 9.15234375 128.53125 11.15234375 128.53125 C10.49234375 125.23125 9.83234375 121.93125 9.15234375 118.53125 C-10.97765625 118.53125 -31.10765625 118.53125 -51.84765625 118.53125 C-52.50765625 119.85125 -53.16765625 121.17125 -53.84765625 122.53125 C-55.25736796 124.07703427 -56.72106417 125.57455602 -58.22265625 127.03125 C-58.99351562 127.7840625 -59.764375 128.536875 -60.55859375 129.3125 C-61.31398438 130.0446875 -62.069375 130.776875 -62.84765625 131.53125 C-63.49992187 132.3046875 -64.1521875 133.078125 -64.82421875 133.875 C-66.84765625 135.53125 -66.84765625 135.53125 -69.18164062 135.38745117 C-74.42951977 133.7020746 -77.90849617 129.16639856 -81.72265625 125.34375 C-82.6146875 124.49232422 -83.50671875 123.64089844 -84.42578125 122.76367188 C-85.26367188 121.93029297 -86.1015625 121.09691406 -86.96484375 120.23828125 C-88.11895752 119.10096558 -88.11895752 119.10096558 -89.29638672 117.94067383 C-90.84765625 115.53125 -90.84765625 115.53125 -90.74511719 112.43603516 C-89.90102565 109.70398914 -89.31825703 108.36235721 -87.37109375 106.34765625 C-86.86835938 105.8155957 -86.365625 105.28353516 -85.84765625 104.73535156 C-85.31140625 104.19362305 -84.77515625 103.65189453 -84.22265625 103.09375 C-83.40667969 102.24441895 -83.40667969 102.24441895 -82.57421875 101.37792969 C-81.49596958 100.25924617 -80.41244181 99.14562214 -79.32324219 98.03759766 C-78.07657549 96.76494155 -76.85381727 95.46893095 -75.63671875 94.16796875 C-70.53078543 88.78332728 -70.53078543 88.78332728 -66.84765625 88.53125 C-64.91796875 89.71875 -64.91796875 89.71875 -62.97265625 91.53125 C-61.93625 92.49417969 -61.93625 92.49417969 -60.87890625 93.4765625 C-58.46079853 95.92257146 -56.22663984 98.46692966 -54.07421875 101.1484375 C-52.87590086 102.67228109 -52.87590086 102.67228109 -50.84765625 103.53125 C-48.96846077 103.62235781 -47.08598833 103.64877837 -45.20458984 103.64477539 C-44.02351654 103.64469986 -42.84244324 103.64462433 -41.62557983 103.64454651 C-39.70523422 103.63680458 -39.70523422 103.63680458 -37.74609375 103.62890625 C-35.78598862 103.62678383 -35.78598862 103.62678383 -33.7862854 103.62461853 C-30.31089367 103.62079894 -26.83554368 103.61097342 -23.36016846 103.59991455 C-19.8143368 103.58968843 -16.2684984 103.58511833 -12.72265625 103.58007812 C-5.76430576 103.56935066 1.19401699 103.55228092 8.15234375 103.53125 C8.81234375 101.55125 9.47234375 99.57125 10.15234375 97.53125 C9.38921875 97.32371094 8.62609375 97.11617188 7.83984375 96.90234375 C2.65542099 94.97466113 -2.02411153 92.28380378 -6.84765625 89.59375 C-8.78464565 88.52121276 -10.72213192 87.44957228 -12.66015625 86.37890625 C-13.51222656 85.90461182 -14.36429687 85.43031738 -15.2421875 84.94165039 C-16.10199219 84.47621826 -16.96179688 84.01078613 -17.84765625 83.53125 C-18.80913574 82.9844458 -19.77061523 82.4376416 -20.76123047 81.87426758 C-24.23349062 80.36335925 -26.64702993 80.17625911 -30.41796875 80.1953125 C-32.25681641 80.17597656 -32.25681641 80.17597656 -34.1328125 80.15625 C-36.70053272 80.15625 -39.26826453 80.16411011 -41.8359375 80.1796875 C-43.05925781 80.16421875 -44.28257812 80.14875 -45.54296875 80.1328125 C-47.21383545 80.13788818 -47.21383545 80.13788818 -48.91845703 80.14306641 C-51.84765625 79.53125 -51.84765625 79.53125 -54.21069336 77.41186523 C-56.17529184 73.95469932 -56.3500601 71.80121529 -56.34375 67.83984375 C-56.34439453 66.56560547 -56.34503906 65.29136719 -56.34570312 63.97851562 C-56.33011353 62.99105347 -56.33011353 62.99105347 -56.31420898 61.98364258 C-56.2851841 59.9706815 -56.29362448 57.96034731 -56.30664062 55.94726562 C-56.23457804 44.99929566 -56.23457804 44.99929566 -52.84765625 41.53125 C-50.97265625 40.921875 -50.97265625 40.921875 -48.84765625 40.78125 C-48.05359375 40.72710937 -47.25953125 40.67296875 -46.44140625 40.6171875 C-25.75128687 39.9316715 -25.75128687 39.9316715 -22.16015625 42.94921875 C-19.84983643 45.73397925 -19.72760149 47.5625978 -19.75 51.1015625 C-19.75483398 52.44541016 -19.75483398 52.44541016 -19.75976562 53.81640625 C-19.77233398 55.22212891 -19.77233398 55.22212891 -19.78515625 56.65625 C-19.78966797 57.60113281 -19.79417969 58.54601562 -19.79882812 59.51953125 C-19.81063268 61.85683387 -19.82709866 64.19401061 -19.84765625 66.53125 C-18.60757813 66.90121094 -17.3675 67.27117187 -16.08984375 67.65234375 C-10.05381039 69.66553701 -4.57280598 72.60390024 1.02734375 75.59375 C2.05859375 76.13580078 3.08984375 76.67785156 4.15234375 77.23632812 C11.64455578 81.19272469 11.64455578 81.19272469 15.15234375 83.53125 C16.14234375 83.53125 17.13234375 83.53125 18.15234375 83.53125 C19.30087056 82.38272319 20.44412674 81.22824613 21.5546875 80.04296875 C24.72686183 77.04142483 29.64689126 72.53125 34.15234375 72.53125 C29.21638702 63.63053172 24.19572064 54.82252473 18.78125 46.203125 C17.15234375 43.53125 17.15234375 43.53125 16.1796875 41.234375 C15.30309647 39.36577439 15.30309647 39.36577439 13.35205078 38.92651367 C11.13953479 38.52894837 9.17424712 38.44743138 6.9296875 38.50390625 C5.75116211 38.52227539 5.75116211 38.52227539 4.54882812 38.54101562 C2.90551258 38.5762575 1.26227501 38.61533875 -0.38085938 38.65820312 C-1.16525391 38.66916016 -1.94964844 38.68011719 -2.7578125 38.69140625 C-3.47074463 38.70824463 -4.18367676 38.72508301 -4.91821289 38.74243164 C-6.84765625 38.53125 -6.84765625 38.53125 -9.84765625 36.53125 C-11.50937846 31.54608337 -11.11189701 26.35584031 -11.14282227 21.13452148 C-11.15436395 19.77569178 -11.17485079 18.41690819 -11.2043457 17.05834961 C-11.24701174 15.09261325 -11.2605868 13.12631359 -11.2734375 11.16015625 C-11.28802002 9.98525635 -11.30260254 8.81035645 -11.31762695 7.59985352 C-10.84765625 4.53125 -10.84765625 4.53125 -9.24902344 2.15014648 C-6.03508953 -0.01654686 -3.86078937 0.01431532 0 0 Z " fill="#FD7A1D" transform="translate(344.84765625,399.46875)"/>
<path d="M0 0 C37.43403311 -2.63208045 78.0240754 14.52836101 113 26 C113.11010768 29.68401947 113.04032492 32.64750749 111.6875 36.0859375 C111.41679688 36.78847656 111.14609375 37.49101563 110.8671875 38.21484375 C110.58101562 38.92769531 110.29484375 39.64054688 110 40.375 C109.71382812 41.11105469 109.42765625 41.84710937 109.1328125 42.60546875 C108.43085139 44.40716893 107.71665595 46.20409432 107 48 C108.19109375 48.23976563 109.3821875 48.47953125 110.609375 48.7265625 C116.61354209 50.06004067 122.4356196 51.93785723 128.30267334 53.76977539 C146.08548368 59.2966316 164.28113986 64.08341842 183.0234375 64.203125 C183.76263931 64.21018463 184.50184113 64.21724426 185.26344299 64.22451782 C207.3230626 64.5631242 207.3230626 64.5631242 229 61 C230.31605225 60.65412842 230.31605225 60.65412842 231.65869141 60.30126953 C239.84771661 58.10830477 247.97610696 55.7401857 256 53 C254.6251276 56.96870385 252.79752511 59.77279987 250.125 63 C249.10792969 64.2375 249.10792969 64.2375 248.0703125 65.5 C247.38710938 66.325 246.70390625 67.15 246 68 C244.98679687 69.29164063 244.98679687 69.29164063 243.953125 70.609375 C230.92972532 86.55001621 208.89332274 96.09012962 189 99 C174.22205725 99.82397924 159.37918295 99.70569357 145 96 C144.27458008 95.81727539 143.54916016 95.63455078 142.80175781 95.44628906 C112.25554183 87.52689973 83.75328604 73.14718761 55.54296875 59.33203125 C46.10068033 54.73039053 36.48125023 50.63360152 26.75 46.6875 C26.12691956 46.43197357 25.50383911 46.17644714 24.86187744 45.91317749 C6.76407925 38.5178023 -9.59084766 35.78327249 -29 36 C-29 35.34 -29 34.68 -29 34 C-27.3125 32.7734375 -27.3125 32.7734375 -25 31.375 C-12.96245112 23.57043534 -6.55141704 12.42910679 0 0 Z " fill="#FD7A1C" transform="translate(447,527)"/>
<path d="M0 0 C37.43403311 -2.63208045 78.0240754 14.52836101 113 26 C113.10748111 29.61405234 113.09657862 32.52062577 111.6875 35.8671875 C111.28144531 36.85332031 111.28144531 36.85332031 110.8671875 37.859375 C110.58101562 38.52453125 110.29484375 39.1896875 110 39.875 C109.71382812 40.56335938 109.42765625 41.25171875 109.1328125 41.9609375 C108.43129447 43.64458078 107.71694244 45.3228668 107 47 C99.17308302 45.53572155 91.84211451 42.94601945 84.3614502 40.29098511 C71.10419939 35.60217604 57.77193554 31.29721876 44.25 27.4375 C43.18220306 27.1295752 43.18220306 27.1295752 42.09283447 26.81542969 C28.74592437 22.98089838 15.33743475 20.16740291 1.5625 18.3125 C0.16161133 18.11817383 0.16161133 18.11817383 -1.26757812 17.91992188 C-3.51120023 17.60926651 -5.75528053 17.30260414 -8 17 C-6.69721449 12.73748817 -5.0542834 9.00980954 -2.875 5.125 C-2.06675781 3.67480469 -2.06675781 3.67480469 -1.2421875 2.1953125 C-0.83226562 1.47085938 -0.42234375 0.74640625 0 0 Z " fill="#35455B" transform="translate(447,527)"/>
<path d="M0 0 C0.91902658 3.26614902 0.97571648 4.90215151 -0.21484375 8.109375 C-0.48876953 8.86347656 -0.76269531 9.61757813 -1.04492188 10.39453125 C-1.33947266 11.17183594 -1.63402344 11.94914062 -1.9375 12.75 C-2.37352539 13.93916016 -2.37352539 13.93916016 -2.81835938 15.15234375 C-3.53594814 17.10512629 -4.26670906 19.05305941 -5 21 C-13.75441457 19.41958844 -22.26971542 17.11691811 -30.85128784 14.80325317 C-48.81317193 9.97595746 -66.54716476 5.77445053 -85 3.3125 C-85.97686768 3.18182129 -86.95373535 3.05114258 -87.96020508 2.91650391 C-93.05556206 2.26837765 -97.98225841 1.95013573 -103.125 1.9375 C-105.82421875 1.75390625 -105.82421875 1.75390625 -108 1 C-109.8932736 -1.34298229 -110.90274172 -3.53405353 -111.9765625 -6.34375 C-113.41333626 -10.07278113 -115.59102024 -12.83391232 -118 -16 C-98.55638101 -35.44361899 -23.00231458 -6.35645137 0 0 Z " fill="#35455A" transform="translate(555,489)"/>
<path d="M0 0 C0.33 0 0.66 0 1 0 C1.05786668 3.79160297 1.09355054 7.58309311 1.125 11.375 C1.14175781 12.45523438 1.15851563 13.53546875 1.17578125 14.6484375 C1.18544922 16.1953125 1.18544922 16.1953125 1.1953125 17.7734375 C1.21102295 19.20308838 1.21102295 19.20308838 1.22705078 20.66162109 C1 23 1 23 -1 25 C-3.8210616 25.34149693 -6.54313157 25.56363809 -9.375 25.6875 C-10.18050293 25.7280249 -10.98600586 25.7685498 -11.81591797 25.81030273 C-18.2722807 26.08376837 -24.58459479 25.81764968 -31 25 C-31.33 23.35 -31.66 21.7 -32 20 C-31.34 20.66 -30.68 21.32 -30 22 C-27.21636314 22.29520874 -27.21636314 22.29520874 -23.96875 22.23046875 C-22.76605469 22.22853516 -21.56335938 22.22660156 -20.32421875 22.22460938 C-19.06222656 22.21236328 -17.80023438 22.20011719 -16.5 22.1875 C-15.23800781 22.18685547 -13.97601563 22.18621094 -12.67578125 22.18554688 C-6.65726542 22.47878743 -6.65726542 22.47878743 -1 21 C-0.67 14.07 -0.34 7.14 0 0 Z " fill="#FE6C0D" transform="translate(323,560)"/>
<path d="M0 0 C0.33 0 0.66 0 1 0 C1.07430494 4.19918185 1.12867413 8.39801274 1.16479492 12.59765625 C1.17985681 14.02545846 1.20031062 15.4532146 1.22631836 16.88085938 C1.26281842 18.93631373 1.27975166 20.99115505 1.29296875 23.046875 C1.3086792 24.28276367 1.32438965 25.51865234 1.34057617 26.79199219 C0.96657269 30.3148637 0.73436617 31.7403309 -2 34 C-5.1862793 34.45410156 -5.1862793 34.45410156 -9.07421875 34.390625 C-9.7580513 34.38496521 -10.44188385 34.37930542 -11.1464386 34.37347412 C-13.32750899 34.35110816 -15.50692753 34.30091765 -17.6875 34.25 C-19.16729395 34.229935 -20.6471137 34.21168422 -22.12695312 34.1953125 C-25.7518376 34.15124474 -29.37575756 34.08221822 -33 34 C-33 33.67 -33 33.34 -33 33 C-30.03 32.505 -30.03 32.505 -27 32 C-27 31.67 -27 31.34 -27 31 C-18.75 31 -10.5 31 -2 31 C-2 30.01 -2 29.02 -2 28 C-1.34 28 -0.68 28 0 28 C0 18.76 0 9.52 0 0 Z " fill="#FC862A" transform="translate(371,590)"/>
<path d="M0 0 C0.66 0 1.32 0 2 0 C2.02505615 0.84296631 2.0501123 1.68593262 2.07592773 2.55444336 C2.17088155 5.67241674 2.27012448 8.79021503 2.37231445 11.90795898 C2.41571223 13.25914147 2.4573837 14.61038053 2.49731445 15.96166992 C2.55489952 17.90036701 2.61914298 19.83886276 2.68359375 21.77734375 C2.72025146 22.94515381 2.75690918 24.11296387 2.79467773 25.31616211 C2.70076188 27.91779795 2.70076188 27.91779795 4 29 C6.14386657 29.15858842 8.29266838 29.25129298 10.44140625 29.31640625 C11.74658203 29.35830078 13.05175781 29.40019531 14.39648438 29.44335938 C15.7851533 29.48317608 17.17382522 29.52288825 18.5625 29.5625 C19.95509183 29.60567989 21.34767028 29.649294 22.74023438 29.69335938 C26.16004801 29.79985876 29.57993763 29.90186923 33 30 C33 30.33 33 30.66 33 31 C28.46102295 31.02465392 23.92208457 31.04283789 19.38305664 31.05493164 C17.83780234 31.0599714 16.29255284 31.0668032 14.74731445 31.07543945 C12.53074971 31.08752076 10.31424782 31.09323173 8.09765625 31.09765625 C7.05545677 31.10539818 7.05545677 31.10539818 5.99220276 31.11329651 C4.3277067 31.11349277 2.66334501 31.06189129 1 31 C0 30 0 30 -0.11352539 27.13256836 C-0.10828857 25.88096924 -0.10305176 24.62937012 -0.09765625 23.33984375 C-0.0962413 22.67537735 -0.09482635 22.01091095 -0.09336853 21.3263092 C-0.08775518 19.19666101 -0.07520054 17.06711661 -0.0625 14.9375 C-0.05748671 13.49674631 -0.05292351 12.05599097 -0.04882812 10.61523438 C-0.03778145 7.07678898 -0.02050792 3.53840461 0 0 Z " fill="#FE6808" transform="translate(335,592)"/>
<path d="M0 0 C1.2271875 0.185625 2.454375 0.37125 3.71875 0.5625 C4.6365625 0.706875 5.554375 0.85125 6.5 1 C6.5 1.33 6.5 1.66 6.5 2 C-8.35 2.33 -23.2 2.66 -38.5 3 C-38.5 2.67 -38.5 2.34 -38.5 2 C-33.49494271 0.39890235 -28.82275527 -0.38151663 -23.5625 -0.625 C-22.89798828 -0.66367187 -22.23347656 -0.70234375 -21.54882812 -0.7421875 C-14.25901367 -1.1381425 -7.24662144 -1.11486484 0 0 Z " fill="#FE6F0D" transform="translate(483.5,440)"/>
<path d="M0 0 C0.33 0 0.66 0 1 0 C1.33 6.27 1.66 12.54 2 19 C2.33 19 2.66 19 3 19 C3.33 22.63 3.66 26.26 4 30 C5.98 30.33 7.96 30.66 10 31 C10 31.33 10 31.66 10 32 C13.96 32.33 17.92 32.66 22 33 C22 33.33 22 33.66 22 34 C19.06225537 34.05390357 16.12549768 34.0936255 13.1875 34.125 C12.35412109 34.14175781 11.52074219 34.15851563 10.66210938 34.17578125 C9.45844727 34.18544922 9.45844727 34.18544922 8.23046875 34.1953125 C7.12288208 34.21102295 7.12288208 34.21102295 5.99291992 34.22705078 C4 34 4 34 1 32 C-0.13917218 28.58248347 -0.11338481 25.96512063 -0.09765625 22.36328125 C-0.09443359 21.06455078 -0.09121094 19.76582031 -0.08789062 18.42773438 C-0.07953531 17.05598892 -0.07107037 15.68424413 -0.0625 14.3125 C-0.05748335 12.92903805 -0.05292073 11.54557437 -0.04882812 10.16210938 C-0.03702529 6.77469605 -0.02056019 3.38736967 0 0 Z " fill="#FB8D34" transform="translate(334,404)"/>
<path d="M0 0 C5.94 0 11.88 0 18 0 C18 0.33 18 0.66 18 1 C24.27 1.33 30.54 1.66 37 2 C37 2.33 37 2.66 37 3 C32.70834802 3.02935775 28.41672236 3.04691802 24.125 3.0625 C22.92101562 3.07087891 21.71703125 3.07925781 20.4765625 3.08789062 C13.58280854 3.10662365 6.84079737 2.87608826 0 2 C0 1.34 0 0.68 0 0 Z " fill="#FD8226" transform="translate(621,503)"/>
<path d="M0 0 C6.78003141 0.72127994 13.27182172 2.18121448 19 6 C20.65583225 6.69313908 22.32110979 7.36474424 24 8 C20.6252898 9.14184472 18.60566936 8.84408845 15.234375 7.78515625 C14.34492188 7.51123047 13.45546875 7.23730469 12.5390625 6.95507812 C11.61867188 6.66052734 10.69828125 6.36597656 9.75 6.0625 C8.81414062 5.77181641 7.87828125 5.48113281 6.9140625 5.18164062 C4.6063855 4.46343503 2.30206318 3.73596262 0 3 C0 2.01 0 1.02 0 0 Z " fill="#2B3B5E" transform="translate(493,552)"/>
<path d="M0 0 C0 0.33 0 0.66 0 1 C-13.66746114 3.72898151 -27.16314636 2.79552868 -41 2 C-41 1.67 -41 1.34 -41 1 C-13.05485809 -0.19388403 -13.05485809 -0.19388403 0 0 Z " fill="#FC862E" transform="translate(673,526)"/>
<path d="M0 0 C0 0.33 0 0.66 0 1 C-9.9 1.33 -19.8 1.66 -30 2 C-29.67 1.34 -29.34 0.68 -29 0 C-19.98970342 -2.63634604 -9.18436653 -1.2890339 0 0 Z " fill="#FC8225" transform="translate(321,441)"/>
<path d="M0 0 C0.33 0 0.66 0 1 0 C0.54775239 5.91492272 -0.1582605 11.35199888 -2 17 C-3.125 15.3125 -3.125 15.3125 -4 13 C-3.125 10.25 -3.125 10.25 -2 8 C-3.32 7.67 -4.64 7.34 -6 7 C-5.02433888 5.83040013 -4.044375 4.66438823 -3.0625 3.5 C-2.51722656 2.8503125 -1.97195313 2.200625 -1.41015625 1.53125 C-0.71212891 0.77328125 -0.71212891 0.77328125 0 0 Z " fill="#FB8026" transform="translate(752,480)"/>
<path d="M0 0 C0.66 0 1.32 0 2 0 C1.85820962 2.22942748 1.71140302 4.45853628 1.5625 6.6875 C1.48128906 7.92886719 1.40007813 9.17023438 1.31640625 10.44921875 C1.05508683 13.38180337 0.65201621 16.13441617 0 19 C-0.33 19 -0.66 19 -1 19 C-1.33 17.02 -1.66 15.04 -2 13 C-2.99 13 -3.98 13 -5 13 C-4.67 12.01 -4.34 11.02 -4 10 C-3.34 10 -2.68 10 -2 10 C-1.01 7.69 -0.02 5.38 1 3 C0.34 2.67 -0.32 2.34 -1 2 C-0.67 1.34 -0.34 0.68 0 0 Z " fill="#F7832C" transform="translate(766,399)"/>
<path d="M0 0 C10.13270429 -0.35762486 19.96788765 0.75155935 30 2 C30 2.33 30 2.66 30 3 C22.08 3 14.16 3 6 3 C6 2.67 6 2.34 6 2 C3.03 1.505 3.03 1.505 0 1 C0 0.67 0 0.34 0 0 Z " fill="#FC8B30" transform="translate(480,440)"/>
<path d="M0 0 C2.58463502 0.28250662 5.16731135 0.5756226 7.75 0.875 C8.47960937 0.95363281 9.20921875 1.03226562 9.9609375 1.11328125 C13.66777257 1.55136176 16.80452172 1.9986215 20 4 C6.96330275 4.3853211 6.96330275 4.3853211 1 2 C0.67 1.34 0.34 0.68 0 0 Z " fill="#FD7112" transform="translate(600,499)"/>
<path d="M0 0 C0 0.99 0 1.98 0 3 C-2.40625 5.26171875 -2.40625 5.26171875 -5.5 7.6875 C-6.5209375 8.49574219 -7.541875 9.30398438 -8.59375 10.13671875 C-9.3878125 10.75160156 -10.181875 11.36648438 -11 12 C-11.66 11.67 -12.32 11.34 -13 11 C-9.57933564 5.94336573 -5.08997609 3.16492103 0 0 Z " fill="#FD7112" transform="translate(748,423)"/>
<path d="M0 0 C11.52164009 -0.18451025 11.52164009 -0.18451025 17 1 C17 1.33 17 1.66 17 2 C12.05 2 7.1 2 2 2 C1.67 3.32 1.34 4.64 1 6 C0.67 4.02 0.34 2.04 0 0 Z " fill="#F89316" transform="translate(448,490)"/>
<path d="M0 0 C0.66 0 1.32 0 2 0 C0.62697042 3.36179923 -0.61885209 4.7212881 -3.875 6.3125 C-4.55304687 6.65925781 -5.23109375 7.00601563 -5.9296875 7.36328125 C-8.35737246 8.10990889 -9.63265545 7.82273185 -12 7 C-11.21753906 6.57847656 -10.43507813 6.15695312 -9.62890625 5.72265625 C-8.61699219 5.17480469 -7.60507812 4.62695312 -6.5625 4.0625 C-5.55316406 3.51722656 -4.54382813 2.97195313 -3.50390625 2.41015625 C-1.13329507 1.22300532 -1.13329507 1.22300532 0 0 Z " fill="#FD7312" transform="translate(671,610)"/>
<path d="M0 0 C0.99 0.495 0.99 0.495 2 1 C2 1.66 2 2.32 2 3 C3.216875 2.979375 4.43375 2.95875 5.6875 2.9375 C8.91977322 2.93175884 11.84934741 3.21233685 15 4 C15 4.33 15 4.66 15 5 C10.05 5 5.1 5 0 5 C0 3.35 0 1.7 0 0 Z " fill="#1F3667" transform="translate(447,485)"/>
<path d="M0 0 C2.278495 4.55698999 1.98806307 6.14950854 1 11 C0.67 11.66 0.34 12.32 0 13 C-0.99 12.67 -1.98 12.34 -3 12 C-2.01 8.04 -1.02 4.08 0 0 Z " fill="#F88124" transform="translate(450,514)"/>
<path d="M0 0 C1.91731918 0.11455681 3.8338675 0.24206258 5.75 0.375 C7.35101563 0.47941406 7.35101563 0.47941406 8.984375 0.5859375 C11.80206432 0.9728223 13.5830366 1.55686166 16 3 C14.39773045 3.22245393 12.79303233 3.42746669 11.1875 3.625 C10.29417969 3.74101562 9.40085937 3.85703125 8.48046875 3.9765625 C4.86610001 4.01071402 2.95412662 1.96941775 0 0 Z " fill="#424955" transform="translate(476,490)"/>
<path d="M0 0 C0.99 0.33 1.98 0.66 3 1 C2.51789062 1.39832031 2.03578125 1.79664063 1.5390625 2.20703125 C0.90742187 2.73683594 0.27578125 3.26664062 -0.375 3.8125 C-1.00148438 4.33457031 -1.62796875 4.85664063 -2.2734375 5.39453125 C-4.2221048 7.08225739 -4.2221048 7.08225739 -6 10 C-6.66 9.67 -7.32 9.34 -8 9 C-5.36 6.03 -2.72 3.06 0 0 Z " fill="#FE700E" transform="translate(745,488)"/>
<path d="M0 0 C0.66 0.33 1.32 0.66 2 1 C1.67 1.66 1.34 2.32 1 3 C1.99 3.33 2.98 3.66 4 4 C4 4.66 4 5.32 4 6 C1.69 5.67 -0.62 5.34 -3 5 C-3 4.01 -3 3.02 -3 2 C-2.01 1.34 -1.02 0.68 0 0 Z " fill="#FC8225" transform="translate(410,451)"/>
<path d="M0 0 C0 0.66 0 1.32 0 2 C-2.52475462 3.26237731 -4.31200466 3.09856404 -7.125 3.0625 C-8.03507813 3.05347656 -8.94515625 3.04445313 -9.8828125 3.03515625 C-10.58148437 3.02355469 -11.28015625 3.01195312 -12 3 C-7.87960164 0.25306776 -4.92304458 0 0 0 Z " fill="#FE6F0E" transform="translate(680,500)"/>
<path d="M0 0 C1.4391134 0.28359887 2.87625518 0.57721399 4.3125 0.875 C5.11300781 1.03742187 5.91351562 1.19984375 6.73828125 1.3671875 C9 2 9 2 12 4 C7.01137151 4.29344873 4.03770942 4.05887078 0 1 C0 0.67 0 0.34 0 0 Z " fill="#FE6F12" transform="translate(573,615)"/>
<path d="M0 0 C1.09570312 0.10183594 2.19140625 0.20367188 3.3203125 0.30859375 C4.16335938 0.39238281 5.00640625 0.47617187 5.875 0.5625 C5.875 0.8925 5.875 1.2225 5.875 1.5625 C1.255 1.8925 -3.365 2.2225 -8.125 2.5625 C-8.125 1.9025 -8.125 1.2425 -8.125 0.5625 C-5.28943413 -0.85528293 -3.1341294 -0.30007622 0 0 Z " fill="#FB862A" transform="translate(426.125,560.4375)"/>
<path d="M0 0 C3 1 3 1 4.1875 2.6875 C5.19313465 5.54969093 5.13689641 7.98827908 5 11 C2.03947516 7.63576723 1.07710178 4.30840713 0 0 Z " fill="#FD7111" transform="translate(427,489)"/>
<path d="M0 0 C0.33 0.66 0.66 1.32 1 2 C0.01 2.495 0.01 2.495 -1 3 C-0.67 3.66 -0.34 4.32 0 5 C-1.98 5 -3.96 5 -6 5 C-5.25 3.0625 -5.25 3.0625 -4 1 C-1.875 0.25 -1.875 0.25 0 0 Z " fill="#FD7113" transform="translate(428,556)"/>
<path d="M0 0 C0.66 0 1.32 0 2 0 C1.25 6.625 1.25 6.625 -1 10 C-1.02689216 8.52093108 -1.04634621 7.04172517 -1.0625 5.5625 C-1.07410156 4.73878906 -1.08570313 3.91507812 -1.09765625 3.06640625 C-1 1 -1 1 0 0 Z " fill="#484F5D" transform="translate(553,492)"/>
<path d="M0 0 C1.258125 0.12375 2.51625 0.2475 3.8125 0.375 C4.87404297 0.47941406 4.87404297 0.47941406 5.95703125 0.5859375 C8 1 8 1 11 3 C8.03 3 5.06 3 2 3 C2 2.34 2 1.68 2 1 C1.34 0.67 0.68 0.34 0 0 Z " fill="#FD6F11" transform="translate(578,494)"/>
<path d="M0 0 C4.455 1.98 4.455 1.98 9 4 C9 4.33 9 4.66 9 5 C2.25 4.125 2.25 4.125 0 3 C0 2.01 0 1.02 0 0 Z " fill="#FE7314" transform="translate(342,488)"/>
<path d="M0 0 C4.67692308 1.47692308 4.67692308 1.47692308 6.3125 4.125 C6.539375 4.74375 6.76625 5.3625 7 6 C6.34 6.66 5.68 7.32 5 8 C2.525 4.04 2.525 4.04 0 0 Z " fill="#5D5858" transform="translate(438,474)"/>
<path d="M0 0 C2.64 0 5.28 0 8 0 C8.33 0.99 8.66 1.98 9 3 C5.26512223 2.5020163 3.18762365 2.12508244 0 0 Z " fill="#ED741E" transform="translate(552,488)"/>
<path d="M0 0 C2.46800047 1.15173355 4.04783565 2.04783565 6 4 C5.67 4.99 5.34 5.98 5 7 C3.29115995 5.37660195 1.62553283 3.70680947 0 2 C0 1.34 0 0.68 0 0 Z " fill="#FD700F" transform="translate(418,478)"/>
<path d="M0 0 C2.25 0.25 2.25 0.25 4 1 C2.02 2.32 0.04 3.64 -2 5 C-2.66 4.67 -3.32 4.34 -4 4 C-2.25 1.9375 -2.25 1.9375 0 0 Z " fill="#FE7215" transform="translate(375,473)"/>
</svg>
